<svg width="232" height="166" viewBox="0 0 232 166" fill="none" xmlns="http://www.w3.org/2000/svg">
<path d="M143.315 0.569993V128.06C143.315 137.21 144.942 144.022 148.195 148.495C151.652 152.765 157.752 154.9 166.495 154.9V161.305C160.192 160.695 153.888 160.39 147.585 160.39C141.688 160.39 135.995 160.695 130.505 161.305C125.218 161.915 120.338 163.033 115.865 164.66V128.67C110.782 141.887 103.563 151.342 94.21 157.035C85.06 162.525 75.605 165.27 65.845 165.27C58.7283 165.27 52.5267 164.253 47.24 162.22C41.9533 160.187 37.5817 157.34 34.125 153.68C30.2617 149.613 27.6183 144.327 26.195 137.82C24.7717 131.313 24.06 123.282 24.06 113.725V37.17C24.06 28.02 22.4333 21.31 19.18 17.04C15.9267 12.5667 9.82667 10.33 0.88 10.33V3.92499C7.38667 4.53499 13.69 4.83999 19.79 4.83999C25.6867 4.83999 31.2783 4.53499 36.565 3.92499C42.055 3.11165 47.0367 1.99332 51.51 0.569993V120.435C51.51 126.738 51.9167 132.533 52.73 137.82C53.5433 143.107 55.5767 147.377 58.83 150.63C62.0833 153.883 67.37 155.51 74.69 155.51C82.62 155.51 89.635 153.07 95.735 148.19C102.038 143.31 106.918 136.702 110.375 128.365C114.035 120.028 115.865 110.675 115.865 100.305V37.17C115.865 28.02 114.238 21.31 110.985 17.04C107.732 12.5667 101.632 10.33 92.685 10.33V3.92499C99.1917 4.53499 105.495 4.83999 111.595 4.83999C117.492 4.83999 123.083 4.53499 128.37 3.92499C133.86 3.11165 138.842 1.99332 143.315 0.569993ZM211.652 126.23C216.938 126.23 221.513 128.162 225.377 132.025C229.24 135.888 231.172 140.463 231.172 145.75C231.172 151.037 229.24 155.612 225.377 159.475C221.513 163.338 216.938 165.27 211.652 165.27C206.365 165.27 201.79 163.338 197.927 159.475C194.063 155.612 192.132 151.037 192.132 145.75C192.132 140.463 194.063 135.888 197.927 132.025C201.79 128.162 206.365 126.23 211.652 126.23Z" fill="black"/>
</svg>
