<svg width="232" height="168" viewBox="0 0 232 168" fill="none" xmlns="http://www.w3.org/2000/svg">
<path d="M143.492 0V129.7C143.492 139.009 145.13 145.939 148.408 150.49C151.89 154.834 158.035 157.006 166.844 157.006V163.522C160.493 162.901 154.143 162.591 147.793 162.591C141.853 162.591 136.117 162.901 130.587 163.522C125.261 164.142 120.345 165.28 115.838 166.935V130.321C110.717 143.767 103.445 153.386 94.0223 159.178C84.8045 164.763 75.2793 167.556 65.4469 167.556C58.2775 167.556 52.0298 166.521 46.7039 164.453C41.378 162.384 36.9739 159.488 33.4916 155.765C29.5996 151.627 26.9367 146.249 25.5028 139.63C24.0689 133.01 23.352 124.839 23.352 115.117V37.2346C23.352 27.9259 21.7132 21.0996 18.4358 16.7556C15.1583 12.2047 9.01303 9.92923 0 9.92923V3.41316C6.55493 4.03374 12.905 4.34404 19.0503 4.34404C24.9907 4.34404 30.6238 4.03374 35.9497 3.41316C41.4804 2.58573 46.4991 1.448 51.0056 0V121.943C51.0056 128.356 51.4153 134.251 52.2346 139.63C53.054 145.008 55.1024 149.352 58.3799 152.662C61.6574 155.971 66.9832 157.626 74.3575 157.626C82.3464 157.626 89.4134 155.144 95.5587 150.179C101.909 145.215 106.825 138.492 110.307 130.011C113.994 121.529 115.838 112.014 115.838 101.464V37.2346C115.838 27.9259 114.199 21.0996 110.922 16.7556C107.644 12.2047 101.499 9.92923 92.486 9.92923V3.41316C99.041 4.03374 105.391 4.34404 111.536 4.34404C117.477 4.34404 123.11 4.03374 128.436 3.41316C133.966 2.58573 138.985 1.448 143.492 0Z" fill="white"/>
<path d="M212.335 127.839C217.661 127.839 222.27 129.804 226.162 133.734C230.054 137.664 232 142.319 232 147.697C232 153.075 230.054 157.73 226.162 161.66C222.27 165.59 217.661 167.556 212.335 167.556C207.009 167.556 202.4 165.59 198.508 161.66C194.616 157.73 192.67 153.075 192.67 147.697C192.67 142.319 194.616 137.664 198.508 133.734C202.4 129.804 207.009 127.839 212.335 127.839Z" fill="white"/>
</svg>
